<?xml version="1.0" encoding="UTF-8"?>
<svg enable-background="new 0 0 1920 1234" version="1.1" viewBox="0 0 1920 1234" xmlns="http://www.w3.org/2000/svg">
 <style type="text/css">.st0{fill:#020202;} .st1{fill:#FAC006;}</style>
 <rect class="st0" width="1920" height="1234"/>
 <ellipse class="st1" transform="matrix(.6453 -.7639 .7639 .6453 -130.84 952.21)" cx="960" cy="617" rx="612.05" ry="612.05"/>
 <path class="st0" d="m1618.9 1194c3.256-9.767-35.892-32.818-52-50-25.149-25.149 10.17-60.661 1-79-15-28-43-50-47-85-1-14-16-22-28-32-3-2-2-7-4-10-2-2-7-3-7-5-0.375-1.873-7.48-0.77-8.76-3.36-1.4-1.99-3.85-2.75-5.68-4.22-21.196-16.242-13.25-16.216-23.09-27.92-5.55-3.93-12.58-5.58-17.6-10.3-5.49-6.69-4.1-16.66-9.87-23.21-6.32-6.55-17.05-5.84-23.19-12.56-1.56-6.36-7.67-9.36-12.43-13.03-0.017-1.956 4.92-180.41 4.92-180.41-1.216-3.158-23.119-82.893-26.23-93.14-34.373 123.6-27.95 80.903-28.56 118.4-7.97 0.5-15.89 1.76-23.86 2.07 3.318-326.38-1e-3 -221.67 4.35-255.49 0.52-4.53 1.63-9 1.57-13.59-6.823-1.173-24.643-85.816-46.44-162.1-0.273 1.001-42.668 158.65-42.68 161.4-1.71 0.12-3.44 0.22-5.11 0.34 1.74 10.03 5.97 19.76 5.18 30.1-0.128 98.025 0.943 59.589-4.29 84.08-19.156 56.404-14.451 44.845-15.05 76.73-25.106-16.566-17.424-7.742-35.1-71-0.43 1.37-0.73 2.77-1.01 4.19-11.552 50.821-6.243 48.486-34.78 71.47-3.079-57.986 6.619-17.87-28.5-136.79-2.57-8.92-5.45-17.77-7.61-26.8-2.163 7.71-27.645 113.07-28.85 121.15 0.022 1.005 2.568 156.68 1.32 159.62-22.325 54.318-18.763 31.631-18.42 109.74-18.766 0.653-21.315 8.349-33.79 11.44-4.32 0.99-6.97 4.91-10.69 7-12.599 6.033-25.609-4.083-35.54 37.82-2.54 2.97-4.82 6.19-7.57 8.99-4.71 4.65-12.45 3.19-17.24 7.69-41.715 39.367-10.289 40.212-62.36 50.07-21.831 2.605-47.632 19.566-65.91 31.79-11.408 7.894-14.211 25.654-25.43 37.17-5.59 2.53-11.13 5.16-16.62 7.89-5.26 1.95-11.05 1.04-16.46 2.44-9.046 7.324-21.186 34.585-22.75 40.28-3.474 16.809-4.562 35.419-27.09 42.59-9.326 3.134-18.317 22.84-23.46 32.15-4.994-1.394-10.063-0.041-15.096-0.477-2.366 3.474-4.793 7.03-7.224 10.787-7 10 3 26-6 34-12.758 10.744-23.72 23.282-36.202 34h994.3c-0.133-13.209 1.467-26.798 1.907-40z"/>
 <path class="st0" d="m726.17 313.1c7.058 0.941 17.464-10.691 23.85 0.41 2.58 3.01-0.9 7.25 1.63 10.3 1.6 3.36 5.71 2.89 8.61 4.29 3.92 2.06 5.75 6.3 8.35 9.65 2.39 2.94 1.23 6.93 1.48 10.39 5.62 3.72 9.91 9.06 13.68 14.58 25.614-2.306 18.564 2.498 27.99-8.7 1.24 0.32 2.53 0.64 3.81 0.91 0.72-3.35 0.68-6.82-1.61-9.57 6.832 0.728 7.643 12.122 6.91 18.54-3.66 5.58-10.55 6.72-15.71 10.32-3.11 2.21-7.08 1.54-10.64 1.5-11.564 9.264 9.136 11.918 6.79 24.77-0.4 1.83-2.08 2.86-3.57 3.76-0.148-7.574-9.132-9.487-8.81-3.89 0.774 8.968 4.282 10.405 5.24 16.49-1.37 0.39-2.73 0.79-4.07 1.2-3.64-1.54-4.66-5.64-7.37-8.09-3.53-2.29-6.29 3.51-3.88 5.96 9.69 9.08 21.736 13.994 27.17 18.41 5.01 4.49 8.54 10.29 12.8 15.45 2.29 2.52 0.02 6.68 2.75 9.07 2.29 1.73 5.27 2.12 7.92 3.12 3.15 0.86 6.02 2.52 9.13 3.51 4.2 0.17 8.27-2.85 12.44-1.18 1.99 0.79 3.82 1.95 5.78 2.86 1.93-0.84 3.9-1.63 5.87-2.42-0.24-3.07 0.81-6.38-0.79-9.21-2.69-5.46-5.74-11.08-6.12-17.27 2.561-22.553 9.132-12.195 14.04-25.88-3.782-10.53 2.898-11.436 3.41-15.16 0.42-2.13 0.96-4.31 2.69-5.79 1.49 2.02 2.51 4.31 3.39 6.65 4.07-0.57 7.22 2.39 11.07 3.02 0.4 3.32-1.82 5.8-3.82 8.12 1.78 3.61 4.01 7.09 4.84 11.08 1.34 4.78-2.9 9.14-1.48 13.93 6.862 22.822 6.019 11.127 10.21 15.47 5.053-2.124 50.406-20.65 54.45-21.86 2.73-1.26 6.6 1.68 5.04 4.72-2.962 2.805-86.571 35.692-87.58 36.09 10.806 1.933 17.451-5.035 23.08-4.21-7.33 6.62-18.6 10.94-28.06 6.4-1.68 0.61-3.35 1.25-5.01 1.89 0.5 1.29 0.99 2.58 1.51 3.88-7.157 7.091-5.269 6.717-13.52 6.79-2.77 0.27-4.53-2.29-6.74-3.5 0.33 1.32 0.7 2.65 1.07 3.97-1.61 0.2-3.21 0.42-4.8 0.65-1.65 3.38-5.31 4.75-8.5 6.22-3.54 1.56-6.47-3.7-9.97-1.48-9.33 3.72-18.7 7.34-27.97 11.23 4.192 16.792-12.225 21.604-19.62 30.15-2.51 2.77-3.31 6.55-5.33 9.62-7.627 11.801-13.254 14.226-11.88 25.04 0.49 4.31 0.02 8.68 0.78 12.97 14.182 0.257 13.264 15.9 24.76 13.56 1.64-0.86 1.17-3.08 1.73-4.52 2.4 3.26 2.06 8.64-1.72 10.7-4.85 1.57-9.88-0.18-14.73-0.79-4.6-0.07-6.33-5.96-10.97-5.87-3.22-0.09-5 3.21-5.7 5.93-2.57-0.96-5.1-2-7.53-3.26 0.64-4.19-2.2-7.81-2.38-11.95-2.105-6.594 8.839-6.862 3.57-14.01-1-1.45-3.01-0.94-4.48-1.28-3.55 2.19-3.04 7.22-6.54 9.48-8.645 6.381-12.872 2.094-16.15 17.04 0.22 4.29 4.34 7.05 5.38 11.1 1.12 4.53 3.58 8.64 6.61 12.15 3 1.47 7.1-0.34 6.63-4.1 0.39 0.49 1.17 1.46 1.56 1.95 0.089 6.406-1.013 9.678-12.2 9.42-11.991-2.794-13.534-15.597-18.99-17.94-2.04 0.08-3.41 1.83-4.9 2.98-1.56-1.16-3.11-2.32-4.66-3.46 0.51-1.17 1.03-2.34 1.57-3.49-0.44-2.52-1.21-5.7 1.4-7.36 1.69-2.07 5.7-3.15 5.15-6.37-7.17-1.24-15.11 0.04-21.06 4.35-3.38 2.38-1.41 7.17-3.75 10.15-7.129 9.226-5.183 12.289-16.69 13.75 11.132-6.415 6.617-9.368 5.17-11.25 1.32-3.23 3.87-6.19 3.62-9.85-1.254-13.746 14.06-13.77 13.86-21.72-3.29 0.61-6.94 0.53-9.81 2.4-12.755 14.826-19.152 11.67-28.62 16.25-4.35 1.9-8.26 5.19-13.19 5.38-7.63 0.21-15-2.14-22.53-2.97 2.11-0.19 4.24-0.27 6.38-0.37 4.27-3.6 9.66-6.92 10.46-12.98-3.82-3.36-9.46-4.87-11.1-10.22-15.33 6.17-30.67 12.31-46.02 18.42-1.98 5.01-3.27 11.96-9.38 13.43-2.9 1.12-4.78-1.96-6.45-3.74-1.53 0.68-3.04 1.35-4.57 2.01-0.05 2.69 0.75 5.29 1.56 7.84-1.32 3.31-0.48 7.48-3.18 10.17-4.28 4.22-10.74 4.38-15.71 7.43-4.96 2.4-8.42 6.78-12.33 10.5-6.73 5.54-15.93 4.75-24.06 5.53-10.781 0.19-12.369 7.496-31.03 10.05-5.98 0.7-11.96 1.7-18.01 1.44 0.57-0.54 1.72-1.62 2.29-2.16-3.33-0.7-6.7-0.38-10.04-0.05-0.01-0.24-0.04-0.72-0.05-0.96 6.63-0.82 12.29-4.78 17.38-8.84-1.76 0.46-8.6 3.27-3.46-0.97-3.73-1.18-7.57-0.36-11.34 0.04 3.7-1.97 8.32-3.2 10.42-7.18-2.6 0.98-5.04 2.31-7.61 3.35 3.06-2.83 6.76-4.87 9.69-7.86-6.16 2.15-12 5.09-17.95 7.72 4.42-4.05 9.84-7.04 13.75-11.72-3.86-1.08-7.78 0.51-11.67-0.3 3.51-2.48 7.8-4.07 10.43-7.61-1.95 1.06-3.83 2.34-6.05 2.73 1.26-1.64 2.62-3.22 3.76-4.95-4.45 1.72-8.81 3.71-13.08 5.85 10.125-13.073 9.354-10.479 18.73-14.83 5.521-2.177 21.549-13.209 30.89-14.98 7.34-1.53 14.71-2.91 22.06-4.35 5.86-0.96 10.95-4.6 16.93-5.04 15.147-1.14 15.109 2.902 21.72 5.47 0.11 0.68 0.34 2.04 0.45 2.72 1.48-0.45 3.05-0.74 4.4-1.55 1.65-1.95 1.46-4.84 2.96-6.88 5.58-3.18 11.74-0.29 17.17 1.65 14.34-6.01 28.83-11.64 43.19-17.63-15.744-16.089-19.474-12.378-29.68-18.87 28.173 0.925 15.991 4.516 31.36-4.28 4.72-2.67 9.92-4.33 14.76-6.77-6.23 1.01-12.08 3.67-18.38 4.32-3.24 0.11-6.09 1.69-9.09 2.65-3.34 0.59-6.66-0.46-9.94-0.89-5.9-1.24-11.8 4.07-17.55 1-9.3-4.41-18.92-8.04-28.79-10.94 18.425 2.107 38.562 11.349 53.2 0 16.159-11.314 28.718-6.838 39.38-8.62 10.379-0.958 31.362 7.367 41.05 6.81-0.29-0.47-0.86-1.39-1.15-1.85-12.767-9.87-27.52-11.828-19.76-28.31 2-3.53 5.62-5.59 8.92-7.72-13.431-0.581-13.459 3.871-19.16 3.91-35.038 3.376-11.09 14.792-54.18-2.59 10.984 2.257 31.15 7.529 35.07 2.63 14.141-16.758 38.208-12.761 47.41-31.97-3.14-1.63-1.85-6.14-4.7-7.77-9.28-1.93-19.3 0.13-28.3-3.56-16.834-4.93-14.658-11.092-29.35-8.07 5.894-5.473 33.423-5.252 36.75-5.4 14.873-0.175 17.098 7.678 36.13-5.16-3.95-0.46-8 0.07-11.85-1.05-22.468-5.654-18.34-5.698-27.24-10.39-6.09-1.44-12.15 1.15-18.19 1.74 7.72-4.45 17.27-7.34 25.98-4.09 26.108 9.598 41.751 3.749 48.31-4.04-5.18-1.64-9.91 1.2-14.83 2.28-6.38 0.19-12.74-0.66-19.06-1.47-4.38-0.56-8.78 0.22-13.16-0.08 16.81-3.944 30.791 3.516 49.26-5.88-5.7-1.15-11.23 1.64-16.91 0.96-3.64-1.42-7.22-3.26-11.25-3.18-7.01-0.03-14.04-0.8-21.03-0.09 12.663-7.191 32.848 0.469 39.45-4.14-5.1 0.49-10.09-0.73-14.97-2.06-8.042-11.928-18.313-4.607-24.96-14.96 32.921 2.507 16.915 12.953 42.95 13.25-2.96-2.35-6.53-3.18-10.23-3.09-6.26-3.99-10.24-10.97-11.95-18.08 2.56 3.22 3.68 7.4 6.71 10.31 2.47 2.96 6.47 3.52 9.77 5.14 2.29 0.98 4.72 2.48 7.32 1.71 8.255-2.261 18.775 2.076 24.24-7.27-5.08 0.45-10.6 2.02-15.3-0.78 8.84-7.31 20.47-9.85 31.29-12.84 3.83-1.12 3.07-5.97 3.85-9.03 1.32-5.4-3.48-8.95-6.42-12.66-3.1-2.95-2.9-7.56-4.03-11.4-2.486-8.809 3.819-7.007-6.58-20.06-2.59-1.97-5.82 1.14-8.58-0.14-4.49-2.24-10.04-4.75-11.07-10.24 1.66-1.95 4.15 1.03 5.84 1.87 3.86-0.88 7.77-1.87 11.77-1.54m-92.4 130.89c4.07 0.68 8.22 0.87 12.24 1.85 3.41 0.801 9.524 5.216 20.7 1.57-9.734 0.031-16.006-7.476-32.94-3.42m251.82 9.67c1.8-0.31 3.64-0.4 5.49-0.32-1.52-1.38-2.94-2.86-4.26-4.42-0.1 1.65-0.5 3.25-1.23 4.74m-100.5 24.52c-3.9 1.94-8.39 2.08-12.64 1.82 0.47-1.7 1.08-3.34 1.72-4.97 0.89-1.5-1.1-2.41-2.29-2.18-15.452 0.84-14.433 5.718-14.88 9.29 1.19 0.94 2.35 2.23 4.04 2.01 21.089 0.385 20.642-0.013 28.87 9.96 8.97-3.21 17.63-7.21 26.55-10.56 2.37-0.76 4.18-2.46 5.79-4.29-2.61 0.27-5.89 1.08-7.86-1.18-3.2-3.62-7.51-5.9-11.26-8.85-6.07 2.87-12.02 5.97-18.04 8.95m-149.82 106.37c9.659-7.506 20.877 0.483 32.38-21.75-22.054 8.297-23.002 7.858-32.38 21.75z"/>
</svg>
